<svg id="レイヤー_1" data-name="レイヤー 1" xmlns="http://www.w3.org/2000/svg" viewBox="0 0 425.2 425.2"><path d="M271.68,349.88H289c7.14,0,14.27-.05,21.41-.05,2.83,0,3,.39,3,3.26-.11,6.47-.13,12.93-.14,19.39,0,2.33,1.15,3.22,3.8,3.2q10.57-.07,21.16-.09c4.73,0,4.71,0,4.71-4.87,0-6,.13-12.08.06-18.13,0-2.09.76-2.81,2.81-2.79,8.23.06,16.46,0,24.68,0,4,0,4.18-.23,4.19-4.3,0-8.48.11-17,0-25.43,0-.77-.92-1.73-1.66-2.23a4.6,4.6,0,0,0-2.43-.4c-8.23,0-16.45,0-24.68.1-1.57,0-2.13-.49-2.08-2s0-2.85,0-4.28q0-45.72.06-91.43a7,7,0,0,0-2.07-5.42Q328,200.65,314.08,186.89c-.1-.1-.3-.1-.71-.23a5.24,5.24,0,0,0-.42,1.48c.09,3.6.35,7.2.35,10.8q.07,57.18.09,114.35c0,3.57-.79,4.69-4.17,4.09-4.77-.86-7.57,1.65-10.55,4.66-8.06,8.12-16.32,16-24.43,24.1A24.3,24.3,0,0,0,271.68,349.88Z"/><path d="M182.79,115h3.42q62.85,0,125.68-.07c2.47,0,3.14.82,2.83,3-.1.74,0,1.52,0,2.26-.24,2.07.53,3.5,2.07,5,9.9,9.6,19.66,19.33,29.48,29a12.43,12.43,0,0,0,1,.83c.11-1.81.29-3.29.27-4.76q-.15-16.37-.4-32.72c0-2.79,1.48-4.37,4.23-4.33q9.82.15,19.64.18,2.83,0,2.82-3-.07-11.58,0-23.16c0-2-1-3-2.86-3-6.87.09-13.74.25-20.61.42-2.16,0-3.12-1-3.13-3.87,0-6.88,0-13.77,0-20.65,0-1.68-.11-3.36-.12-5s-.69-2.33-2.29-2.33q-14,0-27.95,0c-2.05,0-2.23,1.24-2.22,2.85,0,8.56.06,17.12.08,25.69,0,3.34-.17,3.54-3.56,3.54-16.79,0-33.58-.15-50.37-.12-15.78,0-31.55.15-47.32.44-1.49,0-3.21,1.26-4.38,2.4q-12,11.61-23.71,23.45A26.64,26.64,0,0,0,182.79,115Z"/><path d="M208,342.16l29.51-29.52c-1.74-.18-2.8-.4-3.86-.4q-61.32,0-122.63,0a8.2,8.2,0,0,1-3-.13c-.79-.36-1.92-1.53-1.79-2.1,1.21-5.4-1.51-8.91-5.11-12.4-8.46-8.19-16.69-16.62-25-24.93-.75-.75-1.62-1.38-2.92-2.47,0,3.88,0,7.26,0,10.64,0,9.65.1,19.31.21,29,0,2.2-1.3,2.42-3,2.42H51.6c-3.4,0-3.64.19-3.66,3.51q-.06,11.58,0,23.17c0,3.14.31,3.43,3.53,3.36q8.67-.19,17.32-.59c3.94-.18,4.58.38,4.55,4.25-.06,8.06-.12,16.12,0,24.17,0,.79.91,1.76,1.65,2.28a4.55,4.55,0,0,0,2.42.43c8.23,0,16.45,0,24.68,0,3.87,0,4.31-.49,4.27-4.25-.08-8,0-15.95-.15-23.92,0-2.42,1.41-2.41,3.14-2.41q26.8,0,53.63-.07C178.24,342.15,193.51,342.16,208,342.16Z"/><path d="M109.93,242.24a24.7,24.7,0,0,0,.59-3.44q0-61.47-.06-122.93c0-3.1.85-4.76,3.19-4.33,6.67,1.22,10.12-3.21,13.85-7.21,6.31-6.78,12.51-13.65,18.77-20.47.85-.92,1.83-1.72,2.68-2.64a6.75,6.75,0,0,0,.77-1.43,5.7,5.7,0,0,0-1.72-.66c-1.93-.06-3.86,0-5.79,0q-13.47,0-26.95,0c-4,0-4.8-.82-4.8-4.92,0-6.21-.06-12.43,0-18.64,0-2.15-.72-3-2.94-2.92-7.55.11-15.11,0-22.66,0-3.77,0-4,.3-4,4q0,9.06,0,18.13c0,4.1-.28,4.33-4.25,4.33-7.81,0-15.62.07-23.42,0-2.33,0-3,.72-3,3.07.13,8.56.07,17.13,0,25.69,0,3.49.25,3.63,3.58,3.58,8.14-.13,16.28-.07,24.43-.13,2,0,2.08,1.22,2.08,2.69q0,11.2,0,22.42c0,24.1,0,48.2,0,72.3a7.64,7.64,0,0,0,2.47,6Q94.43,226.15,106,237.75C107.19,239,108.27,240.36,109.93,242.24Z"/><path d="M121.25,164.73c2.64-2.48,5.34-4.91,7.91-7.46q24.38-24.2,48.71-48.43Q195,91.79,212.11,74.7c1.17-1.17,1.85-1.48,2.91,0,2.82,3.86,6.61,4.79,11.33,4.66,12.58-.35,25.18-.16,37.77-.19h2.5c-.69-2.91-2.89-4-4.81-5.61-4.45-3.67-8.6-7.7-12.74-11.72-4-3.84-7.75-7.86-11.75-11.94L256,31.74,234.37,9.9c-2.18,2.09-4.32,4-6.31,6.09-3.69,3.85-7.29,7.79-11,11.67-1,1.09-1.82.51-2.72-.39C208.23,21.14,202,15.09,195.87,8.93c-1.53-1.54-2.62-1.62-4.17,0q-9.6,9.71-19.37,19.26c-1.46,1.43-1.5,2.54,0,4C178.54,38.3,184.69,44.56,191,50.7c1.44,1.41,1.42,2.4.06,3.76Q175,70.5,159,86.57c-7.62,7.62-15.36,15.12-22.92,22.8-4.62,4.7-9,9.67-13.51,14.46a7.23,7.23,0,0,0-2,5.43c0,11.16-.1,22.32-.17,33.48a14.28,14.28,0,0,0,.16,1.45Z"/><path d="M211.42,352.15c-3-5.8-7.89-6.31-13.33-6.11-12.14.45-24.29.6-36.41.88-1,1.82.54,2.37,1.54,3.34,5.21,5.08,10.32,10.25,15.45,15.39,3.12,3.13,6.22,6.27,9.61,9.69l-19.35,18.9c4.44,4.19,8.52,8,12.54,11.86,2.36,2.25,4.62,4.6,6.94,6.89s2.91,2.17,5.07,0c4.85-4.95,9.72-9.89,14.51-14.9,1.18-1.23,1.85-1.39,3.19,0,6,6.14,12.25,12.1,18.33,18.18,1.51,1.51,2.63,1.56,4.18,0,6.48-6.53,13.05-13,19.61-19.42,1.45-1.43,1-2.53-.27-3.81-6.24-6.17-12.39-12.43-18.66-18.57-1.42-1.39-1.47-2.38-.09-3.76,9.4-9.4,18.75-18.86,28.16-28.25,12.07-12,24.22-24,36.27-36.06a67.05,67.05,0,0,0,5.77-6.91,5,5,0,0,0,.72-2.83c.07-11.5.07-23,.07-34.51a25,25,0,0,0-.42-2.87Z"/><path d="M347.59,265.5h1.65a28.08,28.08,0,0,1,2.6-3.57q11.16-11.07,22.42-22c1.94-1.89,2.92-1.83,4.83.05,4.83,4.74,9.7,9.43,14.42,14.27,1.3,1.35,1.95,1.22,3.17,0,5.74-5.85,11.59-11.59,17.36-17.42a15.51,15.51,0,0,0,1.71-2.57c-5.47-5.31-10.7-10.5-16.07-15.54-1.67-1.57-.87-2.71.23-3.8,5.33-5.3,10.69-10.58,16.11-15.78a60.94,60.94,0,0,1,5.05-3.91c-5.49-5.4-10.12-9.94-14.74-14.5-2.74-2.7-5.51-5.37-8.15-8.16-1-1.06-1.51-1.13-2.57-.05-6.09,6.2-12.27,12.33-18.45,18.46-.87.87-1.86,1.63-3.08,2.7-4.15-4.09-8.21-8-12.21-12-12.93-12.94-25.72-26-38.81-38.8-7-6.86-14.53-13.27-21.95-19.72a7,7,0,0,0-4.21-1.17c-11-.14-22-.17-33-.18-.55,0-1.55.46-1.56.74a2.79,2.79,0,0,0,.73,1.88c8.1,8.1,16.24,16.14,24.35,24.22q21.32,21.21,42.6,42.44c7.15,7.12,14.25,14.28,21.46,21.34,1.48,1.46,1.72,2.65,0,3.91-4,3-5,7-4.8,11.82C347.24,240.48,347.33,252.89,347.59,265.5Z"/><path d="M73.36,161.09c-3.23,3.36-6.43,6.76-9.71,10.07Q55.87,179,48,186.8c-2.41,2.38-3.52,2.33-5.87,0q-7.28-7.29-14.57-14.55a13.94,13.94,0,0,0-1.3-1c-4.59,4.69-9.13,9.35-13.69,14-1.64,1.67-3.38,3.24-5,4.95C6.4,191.43,6,192.35,7.8,194c5.34,4.8,10.35,10,15.36,15.14.37.38,0,2.08-.54,2.64q-9.15,9.36-18.48,18.53c-2,2-2.09,2.83,0,4.91q9.68,9.65,19.33,19.32c.34.35.73.65,1.54,1.37L47,233c3.18,3.06,6,5.66,8.66,8.34,5.34,5.3,10.57,10.71,15.95,16q15.41,15,30.94,29.95,8.72,8.37,17.7,16.47a6.35,6.35,0,0,0,3.9,1.32c11.16.11,22.33.09,33.49.06a2.07,2.07,0,0,0,1.64-.71c.19-.38-.18-1.26-.58-1.66Q139.88,284,121,265.26q-24.14-24-48.22-48c-5.36-5.35-5.27-4-.06-9.52a6.4,6.4,0,0,0,1.8-3.81c.18-13,.18-26,.21-39,0-1.12-.2-2.25-.3-3.37Z"/></svg>