<svg id="レイヤー_1" data-name="レイヤー 1" xmlns="http://www.w3.org/2000/svg" viewBox="0 0 425.2 425.2"><path d="M195.41,325.58c-5,2.68-1.62,8.8-6.4,11.32a22.35,22.35,0,0,1-1.25-4c-.37-3-.49-6.08-.72-9.12-.49-6.39-4.86-10-10-12-6.55-2.55-13.52-4.06-20.32-5.93-3-.84-6.34-1-9.11-2.36-2.23-1.06-4-3.27-5.7-5.21-1.28-1.45-2.42-2.81-4.42-1.59-1.79,1.1-2.4,2.52-1.26,4.73,2.31,4.51,6.37,6.71,10.79,8,5.35,1.62,11,2.35,16.38,3.82,3.93,1.07,7.69,2.72,12.46,4.45-3.57,5-6.48,9.52-9.82,13.7a82.75,82.75,0,0,1-24.41,20.2c-1.58.89-2.62.92-3.45-1a168.49,168.49,0,0,0-7.08-15.81c-5.14-9.33-11.87-17.36-22.43-20.71-3.42-1.09-7.42-.58-11.12-.35-.59,0-1.25,2.43-1.41,3.8-.06.51,1.29,1.77,1.87,1.7,10.83-1.44,17.87,4.42,23.94,12.22a59.66,59.66,0,0,1,10.47,21.94,9.65,9.65,0,0,1-.74,5.79A55.53,55.53,0,0,1,112.1,382.7c-5.4,3.78-11.51,6.54-17.49,9.86a28.13,28.13,0,0,0,3.72.24c7.47-.43,15-1.67,22.4-1.26,11.37.63,22.73,1.71,33.91,4.55,8.57,2.17,16.33,6,24.36,9.37,2.17.91,4.46,1.53,6.64,2.42,1.59.65,3.08,1.53,5.2,2.59L179.52,414l4.51,2.37c-1.4.72-2.28,1.58-3.1,1.52-7.15-.52-14.5-.33-21.39-2-17-4.15-34.12-7.46-51.73-6-8.82.72-17.58,2.08-26.36,3.15-5.55.69-11.15,2.19-16.64,1.88-8.57-.48-15.42-4.89-20.27-12.13a4.84,4.84,0,0,1,.21-6.41c6.2-8,12.23-16.15,18.33-24.24.29-.39.78-.79.81-1.21a28.42,28.42,0,0,0-.12-3.32c-1.09.35-2.6.35-3.21,1.09C56.17,374,52,379.42,47.7,384.83c-1.88,2.4-3.77,4.8-5.62,7.23-1.42,1.88-3.23,2-4.89.7s-1.08-2.95.07-4.45q7.32-9.63,14.6-19.29c.41-.54,1.07-1.1,1.1-1.68a13.16,13.16,0,0,0-.5-3c-.94.27-2.21.25-2.76.87-3.19,3.63-6.2,7.41-9.28,11.13-1.63,2-3.31,3.9-4.91,5.89-1,1.29-2.5,2.36-3.66,1a4.61,4.61,0,0,1-.23-4.21,83.29,83.29,0,0,1,5.57-8,74.24,74.24,0,0,0,4.46-6.21c.5-.86.08-2.25.09-3.39-1.12.24-2.64.09-3.28.78-2.56,2.72-4.83,5.7-7.21,8.58-1.72,2.07-3,1.92-4-.55-3.6-8.92-7.42-17.77-10.65-26.83a104.31,104.31,0,0,1-4.28-16.83Q9.74,312.09,8,297.44a102.45,102.45,0,0,1,.11-27.71c.91-6,1.27-12.19,2.63-18.12a109.07,109.07,0,0,1,6-19.37,230.76,230.76,0,0,1,12-23.2c6.32-11,15-19.93,25.19-27.44,9.24-6.85,18.64-13.49,27.84-20.39a73.56,73.56,0,0,0,16.48-16.79c3.26-4.68,6-9.67,7-15.39a7.07,7.07,0,0,1,1.26-2.12c.76.49,1.82.81,2.22,1.51,1.94,3.41,3.65,7,5.56,10.38a3.38,3.38,0,0,0,1.94,1.58c.87.19,2.34.09,2.69-.45a3.57,3.57,0,0,0,0-3c-3.82-7.84-7.61-15.71-11.71-23.41-5.45-10.23-12.81-19.09-20.78-27.43-6.61-6.92-14.77-11.67-23.23-16-8.61-4.35-15.83-10.54-22.65-17.27-2.51-2.47-5.34-4.62-8-6.91l.9-1.59c2,.16,4.13.17,6.16.51,5.73,1,11.49,1.78,17.13,3.13s11.34,3.14,16.9,5c4.81,1.66,9.54,3.59,14.17,5.69,13.24,6,24.92,14.1,34.2,25.47a60.53,60.53,0,0,1,13.71,35.15c.07,1.09,1.08,2.79,2,3,1.77.47,2.91-.81,3-2.72a19,19,0,0,0,.09-3.45,13,13,0,0,1,.89-7c1-2.47.5-5.85-.12-8.65a109.68,109.68,0,0,0-4.74-17c-2.7-6.81-5.63-13.68-9.64-19.75a105.42,105.42,0,0,0-15.44-18.46c-4.42-4.18-10.45-6.59-15.47-10.2C88.43,29.54,80.51,24,74.68,16.07A21.76,21.76,0,0,1,72.2,11.4c-.68-1.67-.13-2.89,1.88-2.43A67.41,67.41,0,0,1,82,11.24,226.64,226.64,0,0,1,120.8,29.56c10.55,6.28,21.11,12.61,29.58,21.79a67.62,67.62,0,0,1,14.47,24c3.1,8.91,5.4,17.88,5.31,27.37,0,.69,0,1.38-.08,2.07-.14,1.79-.77,2.14-2.71,1.68-4.85-1.15-9.81-1.9-14.73-2.72-2-.34-3.71.37-3.71,2.66,0,2.14,1.47,2.92,3.59,3a55.94,55.94,0,0,1,25.32,7,48.06,48.06,0,0,1,18.27,18.8c2.65,4.77,4.63,9.92,7.25,14.72,1.09,2,3.06,3.56,4.62,5.33,1.76,2,1.78,4,0,6.06-.33.36-.64.75-1,1.1-4.67,4.81-4.68,4.82-.52,9.81,1.63,2,.85,3.65-.87,4.77a150,150,0,0,1-13.54,8.25c-9.44,4.8-19.61,6.24-30.12,5.62-2-.11-4.05-.11-4.74,2.46-.45,1.69-.23,3,1.8,3.25,1.82.2,3.67.21,5.5.28.83,0,1.67,0,2.52,0-.87,4.18-1.91,8-2.47,12-1.19,8.47,2.06,15.78,6.21,22.89,4,6.92,8,13.89,11.56,21.08a29.25,29.25,0,0,1,2.44,10c.6,6.18.8,12.41,1,18.62.09,3.65-.65,4.14-4.39,4.22a55.39,55.39,0,0,1-22-3.63c-4.84-1.92-7.33-5.57-9.51-9.86a36.6,36.6,0,0,0-4.4-6.95,6.1,6.1,0,0,0-4.12-2,2.42,2.42,0,0,0-2,3.87c3.52,5.44,7,10.93,11,16,1.38,1.76,4,2.85,6.3,3.55a159.68,159.68,0,0,0,16.24,4.15c12.13,2.34,23.51,5.94,31.39,16.37,3.32,4.39,5.54,8.93,3.76,14.74-1.21,3.92-1.66,8.07-2.72,12.05-.27,1-1.6,1.73-2.45,2.58-.47-1-1.29-2.07-1.34-3.14-.08-1.54.51-3.11.57-4.68a8,8,0,0,0-.72-2.46,9.4,9.4,0,0,0-1.45,2.18c-.63,1.87-.86,3.88-1.63,5.67-.4.93-1.59,1.53-2.42,2.28-.55-1-1.43-2-1.56-3.07s.42-2.5.62-3.76S195.19,327.4,195.41,325.58ZM151.94,146c.79,0,1.58,0,2.37,0,2.05-.05,3-1.14,2.35-3.08a11.48,11.48,0,0,1,0-8.32c.68-1.64,0-2.73-2.13-2.82-5.72-.24-10.56,1.81-14.88,5.37-1.51,1.26-1.63,2.59,0,3.93C143.22,144,147.15,146.05,151.94,146ZM111.49,92.71l-.6.44c.27.43.53.87.82,1.3,2.2,3.24,4.82,6.28,6.51,9.78,2.41,5,4.09,10.35,6.21,15.5.35.86,1.34,1.47,2,2.19.31-.92,1.08-2,.86-2.73a96.82,96.82,0,0,0-4-12A37.25,37.25,0,0,0,111.49,92.71Z"/><path d="M392.36,45.54c-5.47,5.18-10.51,11-16.53,15.39-8.34,6.16-17.42,11.32-26.18,16.9-12.62,8-21.46,19.59-29.17,32-4.64,7.49-8.41,15.52-12.53,23.33a11.48,11.48,0,0,0-1.3,3.59,15.55,15.55,0,0,0,.29,3.57c1.37-.44,3.23-.47,4-1.41,1.41-1.7,2.16-3.93,3.21-5.93a52.23,52.23,0,0,1,2.55-4.65c.42-.64,1.34-1.39,2-1.34s1.3,1.1,1.44,1.81c1.63,7.82,5.7,14.29,10.77,20.29,8.58,10.14,19.55,17.31,30.27,24.8,12.57,8.77,24.5,18.23,33.13,31.16a142.45,142.45,0,0,1,15.32,29.44c4.8,13,7.12,26.28,8.15,40,1.05,14-.29,27.75-2.6,41.44a195.45,195.45,0,0,1-6.11,26.69c-3.05,9.61-7.25,18.87-11.1,28.22-.81,2-2.29,1.85-3.65.14-2.26-2.84-4.64-5.61-6.92-8.44-1-1.27-2.35-2.42-3.61-1-.59.68-.27,2.79.36,3.79,2.91,4.56,6.06,9,9.17,13.39,1,1.45,2,3.13.42,4.46-1.93,1.59-3.25-.29-4.36-1.61-4-4.74-7.87-9.58-11.88-14.31a46.79,46.79,0,0,0-3.85-3.64c-2,2-1.6,3.43-.37,5,4.9,6.4,9.73,12.86,14.64,19.25,1.27,1.65,2.2,3.4.22,4.88-1.83,1.37-3.51.8-5-1.14q-8.9-11.23-18.08-22.24c-.76-.9-2.16-1.26-3.26-1.87.14,1.42-.21,3.2.51,4.2,4.72,6.54,9.67,12.91,14.53,19.34a55,55,0,0,1,4.5,6.21,5,5,0,0,1,.21,4c-3.21,6.1-8.36,9.88-14.8,12.34-8.61,3.29-16.72-.29-25-1.4-11.84-1.59-23.64-3.43-35.62-2.64-7.47.5-15,1-22.35,2.12-6.2,1-12.18,3.36-18.38,4.31-7,1.08-14.09,1.29-21.15,1.74-.76.05-1.59-.8-3.09-1.61l4.91-2.1-11.58-3.73c10.68-4.43,20.54-9,30.72-12.61A102.42,102.42,0,0,1,298,392.22c10.95-.19,21.89,0,33,0-3.3-1.54-6.56-2.92-9.69-4.54C309.26,381.38,300.46,372,294,360.05c-2.45-4.48-.6-7.9.59-11.5,3.19-9.67,8.29-18.24,16.34-24.76a20,20,0,0,1,15.68-4.64c1.81.23,2.94.12,2.89-2,0-1.76.31-3.46-2.44-3.8-11.77-1.42-19.94,4.43-26.89,12.91-5.61,6.85-9.38,14.67-12.3,23-1.3,3.69-1.57,3.43-5,1.61-10.62-5.68-19.19-13.69-26.41-23.19-2.24-2.95-4.07-6.22-6.53-10,4.34-1.61,8.07-3.3,12-4.36,5.5-1.51,11.22-2.26,16.68-3.9,4.53-1.36,8.64-3.67,10.88-8.36a3,3,0,0,0-1-4.11,2.67,2.67,0,0,0-4.16.46c-4.19,5.5-10.38,7-16.61,8.74-7.44,2-15.4,2.56-22,7.09-4.32,2.95-7.47,6.57-7.21,12.36a45.58,45.58,0,0,1-.8,8.52,12.6,12.6,0,0,1-1.39,3c-2.4-2.09-2.77-4.54-3.18-7.09a21.82,21.82,0,0,0-1.75-4.43l-1.45.39c.22,1.74.42,3.49.67,5.23.12.87.63,1.82.41,2.58a11.05,11.05,0,0,1-1.68,2.75c-.7-.69-1.72-1.27-2-2.11-.74-2-1.07-4.19-1.73-6.25-.22-.68-1-1.19-1.46-1.78a6.85,6.85,0,0,0-.7,2.26c.08,1.57.55,3.12.63,4.69a17.54,17.54,0,0,1-.42,3.34l-1.06.43c-.82-1.23-2-2.34-2.4-3.69-1-3.19-1.33-6.56-2.33-9.73-3-9.52,1.91-15.86,8.44-21.53a43.35,43.35,0,0,1,21-9.87c7-1.31,13.95-3.29,20.84-5.25,6.08-1.73,10.3-5.85,13.16-11.43,1.39-2.72,2.75-5.45,4.37-8,.92-1.45,1.48-2.69-.12-3.8s-3.53-1.25-4.79.44c-1.7,2.27-3.62,4.61-4.47,7.24-2.42,7.41-8,10.79-15,12.18-5.85,1.18-11.87,1.44-17.82,2.09-2.52.27-3.65-1-3.7-3.43-.24-11.2.17-22.38,4.68-32.82,2.16-5,5.32-9.58,8.16-14.27,4.25-7,8.85-13.94,8.46-22.55-.23-5.13-1.39-10.22-2.19-15.71a17,17,0,0,0,2.56.12,38.58,38.58,0,0,0,5.79-.66,2.33,2.33,0,0,0,1.15-2,7.52,7.52,0,0,0-1.82-3.12c-.44-.44-1.49-.31-2.27-.39-7-.68-14-.74-20.81-2.16-8.93-1.86-16.88-6.29-24-12.08-1.74-1.42-1.89-3.14,0-4.76.66-.58,1.25-1.25,1.87-1.89,1.61-1.65,1.54-3.28-.07-4.89l-1.44-1.48c-4.57-4.64-4.36-5.55-.3-10.49a40.39,40.39,0,0,0,5.88-10c5-12,12.68-21.72,24.27-27.83a56.07,56.07,0,0,1,22.66-5.92c1.06-.08,2.43-.07,3.06-.69a3.71,3.71,0,0,0,.84-3.11,3.17,3.17,0,0,0-2.51-1.76,139.36,139.36,0,0,0-15.36,2.55c-2.28.55-2.88.11-3-1.93-.43-7.58.95-14.93,3-22.16a81.47,81.47,0,0,1,7.77-19,67.6,67.6,0,0,1,21.3-22.57c9.65-6.4,19.59-12.39,29.71-18,6-3.31,12.48-5.66,18.81-8.29,4.17-1.74,8.44-3.21,12.68-4.78a8,8,0,0,1,2.27-.61c.82,0,2.23,0,2.37.35a3.76,3.76,0,0,1-.2,2.73c-2.84,5.54-7.17,9.93-11.95,13.69q-10.89,8.57-22.4,16.32c-9.36,6.3-16.41,14.59-22.17,24.12a99,99,0,0,0-10.9,26.3,82.83,82.83,0,0,0-2.21,12.5c-.19,1.86.9,3.83,1.19,5.78a47.39,47.39,0,0,1,.2,4.92c.06,1.43-.19,3,.33,4.25.44,1,1.79,1.69,2.74,2.51.63-1,1.6-1.89,1.82-3,.91-4.32,1.45-8.72,2.38-13,1.9-8.76,6.37-16.24,12-23a80.86,80.86,0,0,1,26.4-20.92c7.52-3.75,15.19-7.3,23-10.3,5.37-2,11.15-3.12,16.8-4.39,5-1.12,10-2,15.09-2.82,2.13-.36,4.32-.44,6.48-.64ZM273.47,146c4.66,0,8.53-1.88,12.07-4.73,1.86-1.5,1.81-2.85,0-4.31a21.42,21.42,0,0,0-14.33-5.21c-2.35.05-3.22,1.12-2.39,3.09a10.48,10.48,0,0,1,0,7.75c-.74,2.25.23,3.39,2.57,3.41C272.09,146,272.78,146,273.47,146Zm41.06-52.91c-.51-.14-.77-.29-.86-.22-8.06,6.38-13,14.77-15.37,24.65-.33,1.33.48,2.93.76,4.41a35.9,35.9,0,0,0,2.45-4c2.38-5.33,4.42-10.82,7-16C310.1,98.77,312.46,96.06,314.53,93.07Z"/><path d="M234.71,385.27c1.92-2.63,3.32-4.38,4.51-6.26a8.75,8.75,0,0,0,.66-2.72,8.84,8.84,0,0,0-2.62,1.39c-1.7,1.86-3.19,3.91-4.93,6.08l-3-2.6c1.66-2.14,3.22-4,4.61-6a5.84,5.84,0,0,0,.38-2.28c-.81.17-1.89.08-2.38.57-1.52,1.53-2.69,3.42-4.26,4.89-.65.62-2,.53-3,.76-.06-1.13-.61-2.59-.1-3.33,3.65-5.35,7.9-10.32,11.21-15.87,3.84-6.44,7-13.29,10.27-20.06,1.09-2.26,1.55-4.83,2.42-7.22A3,3,0,0,1,250,331c.36-.15,1.17.45,1.59.9,3.79,4.12,7.45,8.35,11.35,12.36,1.15,1.19,1.64,1.92.65,3.43-5,7.65-7.38,16.39-10.17,25-2,6.26-10.08,13.27-14.1,13.07C238.09,385.69,236.88,385.5,234.71,385.27Z"/><path d="M196.05,381.15l-2.93,2.63c-1.72-2.15-3.2-4.2-4.92-6-.67-.72-1.87-.94-2.82-1.38a10.61,10.61,0,0,0,.89,2.74c1.19,1.86,2.58,3.6,4.08,5.65a7.26,7.26,0,0,1-7.63,0c-6.59-3.69-10.38-9.46-12.25-16.59A72,72,0,0,0,162,347.88c-1-1.55-.73-2.33.64-3.64,3.76-3.58,7.2-7.48,10.79-11.24a23.91,23.91,0,0,1,2-1.73,11.12,11.12,0,0,1,1.86,2.47c1.34,3.45,2.13,7.18,3.85,10.42,3.88,7.33,8.07,14.51,12.4,21.59,2.09,3.43,4.86,6.43,7.1,9.78.52.77.11,2.17.13,3.28-1.09-.2-2.48-.05-3.2-.68-1.46-1.27-2.46-3.07-3.86-4.44-.58-.57-1.69-.58-2.56-.85a6.84,6.84,0,0,0,.51,2.51C192.94,377.28,194.45,379.08,196.05,381.15Z"/><path d="M146.68,135c1,1.71,2.17,2.88,2.17,4.06,0,1-1.34,2-2.08,3.06l-4.29-3.38Z"/><path d="M278.62,135.37c-1,1.71-2.17,2.88-2.17,4.06,0,1,1.33,2,2.08,3.06l4.29-3.39Z"/></svg>