<svg id="レイヤー_1" data-name="レイヤー 1" xmlns="http://www.w3.org/2000/svg" viewBox="0 0 425.2 425.2"><defs><style>.cls-1{fill:#231815;}.cls-2{fill:#fff;}</style></defs><circle class="cls-1" cx="88.07" cy="181.34" r="73.9"/><circle class="cls-1" cx="212.84" cy="87.96" r="73.9"/><circle class="cls-1" cx="337.13" cy="180.05" r="73.9"/><circle class="cls-1" cx="289.47" cy="328.17" r="73.9"/><circle class="cls-1" cx="136.53" cy="327.52" r="73.9"/><circle class="cls-1" cx="213.4" cy="220.69" r="29.54"/><path class="cls-1" d="M271.94,240.37l-59.08,42.69-58.86-43,22.7-69.26,72.89.18ZM213.48,186a35.1,35.1,0,1,0,35.1,35.1A35.09,35.09,0,0,0,213.48,186Z"/><rect class="cls-2" x="254.57" y="212.26" width="6.05" height="22.45" transform="translate(34.11 481.08) rotate(-90)"/><rect class="cls-2" x="247.17" y="185.25" width="6.05" height="22.45" transform="translate(220.48 513.2) rotate(-122.78)"/><rect class="cls-2" x="226.24" y="166.9" width="6.05" height="22.45" transform="translate(371 431.49) rotate(-157.07)"/><rect class="cls-2" x="221.73" y="251.26" width="6.05" height="22.45" transform="translate(-63.84 72.42) rotate(-16.06)"/><rect class="cls-2" x="195.65" y="251.58" width="6.05" height="22.45" transform="translate(117.27 -56.43) rotate(22.78)"/><rect class="cls-2" x="242.66" y="237.09" width="6.05" height="22.45" transform="translate(-100.93 291.65) rotate(-52.43)"/><rect class="cls-2" x="174.07" y="237.09" width="6.05" height="22.45" transform="translate(95.08 542.08) rotate(-128.9)"/><rect class="cls-2" x="165.06" y="211.98" width="6.05" height="22.45" transform="translate(-55.12 391.28) rotate(-90)"/><rect class="cls-2" x="173.11" y="187.51" width="6.05" height="22.45" transform="translate(-79.76 269.68) rotate(-63.95)"/><rect class="cls-2" x="193.07" y="167.22" width="6.05" height="22.45" transform="matrix(0.93, -0.36, 0.36, 0.93, -51.08, 82.53)"/></svg>